<?xml version="1.0" encoding="UTF-8" standalone="no"?>
<!DOCTYPE svg PUBLIC "-//W3C//DTD SVG 1.1//EN" "http://www.w3.org/Graphics/SVG/1.1/DTD/svg11.dtd">
<!-- 由 Microsoft Visio, SVG Export 生成 绘图1.svg Page-1 -->
<svg xmlns="http://www.w3.org/2000/svg" xmlns:xlink="http://www.w3.org/1999/xlink" xmlns:ev="http://www.w3.org/2001/xml-events"
		xmlns:v="http://schemas.microsoft.com/visio/2003/SVGExtensions/" width="3.60872in" height="1.28576in"
		viewBox="0 0 259.828 92.575" xml:space="preserve" color-interpolation-filters="sRGB" class="st15">
	<v:documentProperties v:langID="2052" v:metric="true" v:viewMarkup="false">
		<v:userDefs>
			<v:ud v:nameU="msvSubprocessMaster" v:prompt="" v:val="VT4(Rectangle)"/>
			<v:ud v:nameU="msvNoAutoConnect" v:val="VT0(1):26"/>
		</v:userDefs>
	</v:documentProperties>

	<style type="text/css">
	<![CDATA[
		.st1 {fill:#ff66ff;stroke:none;stroke-width:0.25}
		.st2 {fill:#00b0f0;stroke:none;stroke-width:0.25}
		.st3 {fill:#ee0000;stroke:none;stroke-width:0.25}
		.st4 {fill:#ffc000;stroke:none;stroke-width:0.25}
		.st5 {fill:none;stroke:none;stroke-width:0.25}
		.st6 {fill:#000000;font-family:Calibri;font-size:1.16666em}
		.st7 {fill:#000000;font-family:黑体;font-size:1.16666em}
		.st8 {marker-end:url(#mrkr4-27);stroke:#000000;stroke-linecap:round;stroke-linejoin:round;stroke-width:1.5}
		.st9 {fill:#000000;fill-opacity:1;stroke:#000000;stroke-opacity:1;stroke-width:0.37313432835821}
		.st10 {marker-end:url(#mrkr4-33);stroke:#000000;stroke-linecap:round;stroke-linejoin:round;stroke-width:1.5}
		.st11 {marker-start:url(#mrkr4-39);stroke:#000000;stroke-linecap:round;stroke-linejoin:round;stroke-width:1}
		.st12 {fill:#000000;fill-opacity:1;stroke:#000000;stroke-opacity:1;stroke-width:0.28409090909091}
		.st13 {stroke:#000000;stroke-linecap:round;stroke-linejoin:round;stroke-width:1}
		.st14 {fill:#000000;font-family:Calibri;font-size:1.00001em}
		.st15 {fill:none;fill-rule:evenodd;font-size:12px;overflow:visible;stroke-linecap:square;stroke-miterlimit:3}
	]]>
	</style>

	<defs id="Markers">
		<g id="lend4">
			<path d="M 2 1 L 0 0 L 2 -1 L 2 1 " style="stroke:none"/>
		</g>
		<marker id="mrkr4-27" class="st9" v:arrowType="4" v:arrowSize="2" v:setback="5.12" refX="-5.12" orient="auto"
				markerUnits="strokeWidth" overflow="visible">
			<use xlink:href="#lend4" transform="scale(-2.68,-2.68) "/>
		</marker>
		<marker id="mrkr4-33" class="st9" v:arrowType="4" v:arrowSize="2" v:setback="5.36" refX="-5.36" orient="auto"
				markerUnits="strokeWidth" overflow="visible">
			<use xlink:href="#lend4" transform="scale(-2.68,-2.68) "/>
		</marker>
		<marker id="mrkr4-39" class="st12" v:arrowType="4" v:arrowSize="2" v:setback="6.68" refX="6.68" orient="auto"
				markerUnits="strokeWidth" overflow="visible">
			<use xlink:href="#lend4" transform="scale(3.52) "/>
		</marker>
	</defs>
	<g v:mID="0" v:index="1" v:groupContext="foregroundPage">
		<v:userDefs>
			<v:ud v:nameU="msvThemeOrder" v:val="VT0(0):26"/>
		</v:userDefs>
		<title>页-1</title>
		<v:pageProperties v:drawingScale="0.0393701" v:pageScale="0.0393701" v:drawingUnits="24" v:shadowOffsetX="8.50394"
				v:shadowOffsetY="-8.50394"/>
		<g id="group44-1" transform="translate(27.3839,-2.48937)" v:mID="44" v:groupContext="group">
			<title>工作表.44</title>
			<g id="shape29-2" v:mID="29" v:groupContext="shape" transform="translate(111.075,0)">
				<title>工作表.29</title>
				<path d="M68.25 23.09 A5.02375 5.02375 0 0 1 64.9 27.35 A34.9868 34.9868 0 1 1 5.4 54.9 L0 54.9 A40.3694 40.3694
							 -180 1 0 68.25 23.09 Z" class="st1"/>
			</g>
			<g id="shape34-4" v:mID="34" v:groupContext="shape" transform="translate(111.075,-43.0607)">
				<title>工作表.34</title>
				<path d="M61.53 60.94 A40.3694 40.3694 -180 0 0 0 92.58 L5.4 92.58 A34.9868 34.9868 0 0 1 58.24 65.24 A5.02375 5.02375
							 0 0 1 61.53 60.94 Z" class="st2"/>
			</g>
			<g id="shape35-6" v:mID="35" v:groupContext="shape" transform="translate(169.296,-64.9499)">
				<title>工作表.35</title>
				<path d="M3.31 82.83 A5.02375 5.02375 -180 0 0 0.02 87.13 A5.02375 5.02375 -180 0 0 0 87.55 A5.02375 5.02375 -180
							 0 0 6.68 92.3 A5.02375 5.02375 -180 0 0 10.02 88.04 A5.02375 5.02375 -180 0 0 10.05 87.55 A5.02375 5.02375
							 -180 0 0 3.31 82.83 Z" class="st3"/>
			</g>
			<g id="shape36-8" v:mID="36" v:groupContext="shape" transform="translate(0,-37.6781)">
				<title>工作表.36</title>
				<path d="M111.15 92.58 L116.55 92.58 A34.9868 34.9868 0 0 1 116.55 87.19 L111.15 87.19 L0 87.19 L0 92.58 L111.15
							 92.58 Z" class="st4"/>
			</g>
			<g id="shape38-10" v:mID="38" v:groupContext="shape" transform="translate(17.8662,-43.0607)">
				<title>工作表.38</title>
				<desc>a</desc>
				<v:textBlock v:margins="rect(4,4,4,4)" v:tabSpace="42.5197"/>
				<v:textRect cx="10.81" cy="86.2455" width="21.62" height="12.659"/>
				<rect x="0" y="79.916" width="21.62" height="12.659" class="st5"/>
				<text x="7.46" y="90.45" class="st6" v:langID="2052"><v:paragraph v:horizAlign="1"/><v:tabList/>a</text>			</g>
			<g id="shape39-13" v:mID="39" v:groupContext="shape" transform="translate(118.252,-75.3562)">
				<title>工作表.39</title>
				<desc>b</desc>
				<v:textBlock v:margins="rect(4,4,4,4)" v:tabSpace="42.5197"/>
				<v:textRect cx="10.81" cy="86.2455" width="21.62" height="12.659"/>
				<rect x="0" y="79.916" width="21.62" height="12.659" class="st5"/>
				<text x="7.13" y="90.45" class="st6" v:langID="2052"><v:paragraph v:horizAlign="1"/><v:tabList/>b</text>			</g>
			<g id="shape40-16" v:mID="40" v:groupContext="shape" transform="translate(179.344,-7.17679)">
				<title>工作表.40</title>
				<desc>c</desc>
				<v:textBlock v:margins="rect(4,4,4,4)" v:tabSpace="42.5197"/>
				<v:textRect cx="10.81" cy="86.2455" width="21.62" height="12.659"/>
				<rect x="0" y="79.916" width="21.62" height="12.659" class="st5"/>
				<text x="7.85" y="90.45" class="st6" v:langID="2052"><v:paragraph v:horizAlign="1"/><v:tabList/>c</text>			</g>
			<g id="shape41-19" v:mID="41" v:groupContext="shape" transform="translate(175.628,-72.3803)">
				<title>工作表.41</title>
				<desc>相遇点</desc>
				<v:textBlock v:margins="rect(4,4,4,4)" v:tabSpace="42.5197"/>
				<v:textRect cx="28.2829" cy="86.2455" width="56.57" height="12.659"/>
				<rect x="0" y="79.916" width="56.5658" height="12.659" class="st5"/>
				<text x="7.28" y="90.9" class="st7" v:langID="2052"><v:paragraph v:horizAlign="1"/><v:tabList/>相遇点</text>			</g>
			<g id="shape42-22" v:mID="42" v:groupContext="shape" transform="translate(76.8022,-33.6917) rotate(-31.7511)">
				<title>工作表.42</title>
				<path d="M-0 92.58 A27.6924 25.179 13.89 0 1 32.22 88.14 L32.52 88.34" class="st8"/>
			</g>
			<g id="shape43-28" v:mID="43" v:groupContext="shape" transform="translate(44.7791,-48.4433)">
				<title>工作表.43</title>
				<path d="M0 92.58 L36.81 92.58" class="st10"/>
			</g>
		</g>
		<g id="shape46-34" v:mID="46" v:groupContext="shape" transform="translate(119.839,52.4076) rotate(90)">
			<title>工作表.46</title>
			<path d="M6.68 92.58 L7.04 92.58 L19.25 92.58" class="st11"/>
		</g>
		<g id="shape47-40" v:mID="47" v:groupContext="shape" transform="translate(8.13032,-8.25553)">
			<title>工作表.47</title>
			<desc>head</desc>
			<v:textBlock v:margins="rect(4,4,4,4)" v:tabSpace="42.5197"/>
			<v:textRect cx="19.1339" cy="86.2455" width="38.27" height="12.659"/>
			<rect x="0" y="79.916" width="38.2677" height="12.659" class="st5"/>
			<text x="4.94" y="90.45" class="st6" v:langID="2052"><v:paragraph v:horizAlign="1"/><v:tabList/>head</text>		</g>
		<g id="shape48-43" v:mID="48" v:groupContext="shape" transform="translate(267.108,118.529) rotate(137.386)">
			<title>工作表.48</title>
			<path d="M-0 92.58 A28.3465 26.0788 42.61 0 1 31.94 87.95 L32.23 88.16" class="st8"/>
		</g>
		<g id="shape49-48" v:mID="49" v:groupContext="shape" transform="translate(97.1215,-15.2485) rotate(56.2173)">
			<title>工作表.49</title>
			<path d="M0 92.58 L12.96 92.58" class="st13"/>
		</g>
		<g id="shape50-51" v:mID="50" v:groupContext="shape" transform="translate(113.138,84.8344) rotate(121.672)">
			<title>工作表.50</title>
			<path d="M0 92.58 L12.69 92.58" class="st13"/>
		</g>
		<g id="shape51-54" v:mID="51" v:groupContext="shape" transform="translate(1.75236,-58.5221)">
			<title>工作表.51</title>
			<desc>fast</desc>
			<v:textBlock v:margins="rect(4,4,4,4)" v:tabSpace="42.5197"/>
			<v:textRect cx="13.5259" cy="86.2455" width="27.06" height="12.659"/>
			<rect x="0" y="79.916" width="27.0517" height="12.659" class="st5"/>
			<text x="4.46" y="89.85" class="st14" v:langID="2052"><v:paragraph v:horizAlign="1"/><v:tabList/>fast</text>		</g>
		<g id="shape52-57" v:mID="52" v:groupContext="shape" transform="translate(25.1382,-59.1823)">
			<title>工作表.52</title>
			<desc>slow</desc>
			<v:textBlock v:margins="rect(4,4,4,4)" v:tabSpace="42.5197"/>
			<v:textRect cx="19.1339" cy="86.2455" width="38.27" height="12.659"/>
			<rect x="0" y="79.916" width="38.2677" height="12.659" class="st5"/>
			<text x="7.96" y="89.85" class="st14" v:langID="2052"><v:paragraph v:horizAlign="1"/><v:tabList/>slow</text>		</g>
	</g>
</svg>
